<?xml version="1.0" encoding="UTF-8"?>
<svg version="1.1" xmlns="http://www.w3.org/2000/svg" width="512" height="512">
<path d="M0 0 C1.01790619 0.00215515 2.03581238 0.0043103 3.08456421 0.00653076 C17.69363523 0.05620146 32.02575853 0.30709809 46.375 3.3125 C47.34985352 3.51117676 48.32470703 3.70985352 49.32910156 3.91455078 C108.89482498 16.37463238 165.24866419 48.2648637 202.375 97.3125 C202.79023926 97.85132812 203.20547852 98.39015625 203.63330078 98.9453125 C228.13415115 130.81517547 244.62642134 167.36831241 252.6875 206.75 C252.83485596 207.46889404 252.98221191 208.18778809 253.1340332 208.9284668 C256.10789088 224.57475609 256.74800362 240.04818046 256.6875 255.9375 C256.68534485 256.95540619 256.6831897 257.97331238 256.68096924 259.02206421 C256.63129854 273.63113523 256.38040191 287.96325853 253.375 302.3125 C253.07698486 303.77478027 253.07698486 303.77478027 252.77294922 305.26660156 C242.52138226 354.27446698 220.18217348 398.27864199 185.375 434.3125 C184.77606934 434.93334473 184.17713867 435.55418945 183.56005859 436.19384766 C175.89623497 444.09500259 168.15501606 451.64016955 159.375 458.3125 C158.83472168 458.72918945 158.29444336 459.14587891 157.73779297 459.57519531 C125.8687531 484.07334707 89.31685217 500.56439938 49.9375 508.625 C49.21860596 508.77235596 48.49971191 508.91971191 47.7590332 509.0715332 C33.08339502 511.86090125 18.55831162 512.66142619 3.64770508 512.62817383 C0.70811513 512.6250221 -2.2304558 512.64854926 -5.16992188 512.67382812 C-18.54306192 512.71848737 -31.43916711 511.51301542 -44.625 509.3125 C-46.33055054 509.03031616 -46.33055054 509.03031616 -48.07055664 508.74243164 C-50.6662622 508.27617402 -53.23774939 507.7574418 -55.8125 507.1875 C-57.20142456 506.88054199 -57.20142456 506.88054199 -58.6184082 506.56738281 C-103.71300222 496.08183329 -144.40193368 473.34639441 -177.625 441.3125 C-178.58889648 440.38945068 -178.58889648 440.38945068 -179.57226562 439.44775391 C-188.74836539 430.62136647 -197.09816554 421.58141996 -204.625 411.3125 C-205.26211914 410.45857666 -205.26211914 410.45857666 -205.91210938 409.58740234 C-212.42768015 400.84658179 -218.26088547 391.80163672 -223.625 382.3125 C-224.0271875 381.60528809 -224.429375 380.89807617 -224.84375 380.16943359 C-237.8691741 357.03404164 -246.61801461 331.86287591 -251.9375 305.875 C-252.08485596 305.15610596 -252.23221191 304.43721191 -252.3840332 303.6965332 C-255.35789088 288.05024391 -255.99800362 272.57681954 -255.9375 256.6875 C-255.93534485 255.66959381 -255.9331897 254.65168762 -255.93096924 253.60293579 C-255.88129854 238.99386477 -255.63040191 224.66174147 -252.625 210.3125 C-252.42632324 209.33764648 -252.22764648 208.36279297 -252.02294922 207.35839844 C-241.90232806 158.9765226 -219.9858123 114.98821731 -185.625 79.3125 C-184.99287598 78.65314453 -184.36075195 77.99378906 -183.70947266 77.31445312 C-174.56502521 67.82619695 -165.26765991 59.0862956 -154.625 51.3125 C-153.47394983 50.45443848 -152.32290823 49.59636549 -151.171875 48.73828125 C-142.98224019 42.70072604 -134.47961724 37.31792698 -125.625 32.3125 C-124.91778809 31.9103125 -124.21057617 31.508125 -123.48193359 31.09375 C-100.34654164 18.0683259 -75.17537591 9.31948539 -49.1875 4 C-48.46860596 3.85264404 -47.74971191 3.70528809 -47.0090332 3.5534668 C-31.36274391 0.57960912 -15.88931954 -0.06050362 0 0 Z M-109.1875 151 C-137.84519938 183.94344541 -148.91585325 224.34991085 -146.625 267.3125 C-146.12700445 273.44078702 -145.07605134 279.34405163 -143.625 285.3125 C-143.45871094 286.03614746 -143.29242188 286.75979492 -143.12109375 287.50537109 C-140.12460331 300.32646582 -135.60481594 312.99124912 -128.8203125 324.328125 C-126.49823887 330.12572059 -128.85902095 336.69699212 -130.49853516 342.50708008 C-130.68560532 343.17642578 -130.87267548 343.84577148 -131.06541443 344.53540039 C-131.46779824 345.97268578 -131.87273375 347.40925886 -132.28001785 348.84516335 C-132.92413626 351.1175708 -133.56052353 353.39201943 -134.19491577 355.66716003 C-135.99845487 362.12967782 -137.81643181 368.58811214 -139.63769531 375.0456543 C-140.7546781 379.00808004 -141.86344658 382.9727319 -142.96735764 386.93881798 C-143.38912211 388.44724504 -143.81417957 389.95475534 -144.24257278 391.46131325 C-144.83945159 393.56044793 -145.42595747 395.66222681 -146.01025391 397.76489258 C-146.51535995 399.55737175 -146.51535995 399.55737175 -147.03067017 401.38606262 C-147.88728181 404.35684588 -147.88728181 404.35684588 -146.625 407.3125 C-145.6736618 407.05971786 -144.72232361 406.80693573 -143.74215698 406.54649353 C-134.77047251 404.16429204 -125.79551616 401.79479719 -116.81721306 399.43765926 C-112.20162553 398.22546142 -107.58730093 397.00883814 -102.97558594 395.78198242 C-98.52387637 394.59786891 -94.06921581 393.42553665 -89.61227798 392.26126289 C-87.91355475 391.81531375 -86.2159318 391.36515115 -84.5194664 390.9106884 C-82.14060261 390.27419395 -79.75824505 389.65287921 -77.37451172 389.03491211 C-76.3268589 388.74899704 -76.3268589 388.74899704 -75.25804138 388.45730591 C-68.01804404 386.6155946 -63.48427552 388.18467629 -57 391.5 C-22.08943237 408.51019831 19.69223343 409.1980387 56.09375 396.74609375 C77.64536435 388.94975121 95.94667673 377.16720863 112.375 361.3125 C113.21546875 360.53519531 114.0559375 359.75789063 114.921875 358.95703125 C136.77760625 338.18016572 150.51151127 309.66080412 156.375 280.3125 C156.59929687 279.20003906 156.82359375 278.08757812 157.0546875 276.94140625 C162.22615299 245.73550831 157.12125737 213.61827499 143.375 185.3125 C143.07754883 184.68778809 142.78009766 184.06307617 142.47363281 183.41943359 C129.8165844 157.12698114 108.46762422 134.99019353 83.375 120.3125 C82.75351074 119.9402832 82.13202148 119.56806641 81.49169922 119.18457031 C18.3397068 81.76234899 -60.32523629 99.18690686 -109.1875 151 Z " fill="#000000" transform="translate(255.625,-0.3125)"/>
<path d="M0 0 C2.46933931 2.18755285 4.88591023 4.41988116 7.2890625 6.6796875 C7.87945312 7.205625 8.46984375 7.7315625 9.078125 8.2734375 C29.75402434 27.47948617 43.23551761 58.69474803 44.41503906 86.66723633 C45.33627024 126.32390619 34.81558812 159.3350294 7.2890625 188.6796875 C-16.62029655 212.58904655 -49.16203987 224.94479345 -82.6484375 225.9296875 C-84.33727848 225.88052603 -86.02505026 225.790975 -87.7109375 225.6796875 C-88.35546875 225.63859863 -89 225.59750977 -89.6640625 225.55517578 C-106.60585867 224.37991377 -122.24514191 220.66465476 -137.70703125 213.62109375 C-138.33802734 213.34104492 -138.96902344 213.06099609 -139.61914062 212.77246094 C-141.7109375 211.6796875 -141.7109375 211.6796875 -144.02148438 209.92285156 C-149.057529 206.51482282 -152.95809046 205.31354431 -158.9519043 206.32348633 C-165.16768474 207.67502117 -171.2453108 209.48171284 -177.3359375 211.3046875 C-179.47933159 211.91416963 -181.62385988 212.51967786 -183.76953125 213.12109375 C-188.45931859 214.4382261 -193.13626499 215.79332723 -197.80484009 217.18374634 C-199.7109375 217.6796875 -199.7109375 217.6796875 -201.7109375 217.6796875 C-201.22007412 215.44819672 -200.71970145 213.21963736 -200.2109375 210.9921875 C-199.962229 209.90115723 -199.962229 209.90115723 -199.70849609 208.78808594 C-198.48238355 203.56946418 -197.08309837 198.41937567 -195.59375 193.26953125 C-195.21937793 191.96509452 -194.8450291 190.66065113 -194.47070312 189.35620117 C-193.90728111 187.39563252 -193.33830266 185.43756516 -192.75170898 183.48379517 C-192.19567464 181.63130326 -191.65998611 179.77274222 -191.125 177.9140625 C-190.8048291 176.83350586 -190.4846582 175.75294922 -190.15478516 174.63964844 C-189.6389485 171.19960241 -190.12812974 169.73260609 -191.7109375 166.6796875 C-192.05737305 166.01106689 -192.40380859 165.34244629 -192.76074219 164.65356445 C-193.13102539 163.99831787 -193.50130859 163.34307129 -193.8828125 162.66796875 C-199.80152728 151.97676511 -204.54822613 141.49852579 -207.7109375 129.6796875 C-208.04996094 128.42027344 -208.38898438 127.16085937 -208.73828125 125.86328125 C-216.11920723 92.15591881 -209.17801467 57.9631742 -191.7109375 28.6796875 C-186.78172159 21.03090419 -180.94289956 14.28867218 -174.7109375 7.6796875 C-174.11023438 7.01453125 -173.50953125 6.349375 -172.890625 5.6640625 C-127.97649808 -42.16656617 -48.27686224 -41.32054203 0 0 Z M-153.87890625 38.94921875 C-160.51742112 48.84329528 -161.89566342 59.92456293 -160.3203125 71.56640625 C-157.22779154 86.09728998 -149.04486985 98.50574962 -140.00878906 110.0234375 C-138.86851159 111.47859972 -137.75253472 112.95273572 -136.640625 114.4296875 C-125.48707986 128.77620831 -112.01669368 141.84760451 -96.7109375 151.6796875 C-95.97665527 152.15639893 -95.24237305 152.63311035 -94.48583984 153.12426758 C-88.04727781 157.15819748 -81.39929863 160.09969699 -74.3359375 162.8671875 C-72.76585937 163.50430664 -72.76585937 163.50430664 -71.1640625 164.15429688 C-57.56996905 169.54997718 -43.49861112 173.689438 -29.125 168.7265625 C-20.82047395 165.125247 -13.79239031 160.28175542 -8.7109375 152.6796875 C-7.67094821 149.89246017 -7.67094821 149.89246017 -6.9609375 146.8671875 C-6.69796875 145.87074219 -6.435 144.87429688 -6.1640625 143.84765625 C-5.60499119 139.93897668 -5.47593583 137.46673809 -6.7109375 133.6796875 C-9.32077526 131.46892307 -12.24877996 130.11680234 -15.3359375 128.6796875 C-16.18881348 128.25961426 -17.04168945 127.83954102 -17.92041016 127.40673828 C-19.66573231 126.55246443 -21.41695134 125.71013408 -23.17382812 124.87988281 C-25.50835281 123.77552144 -27.82214242 122.63759598 -30.1328125 121.484375 C-37.58296388 117.24917393 -37.58296388 117.24917393 -45.7109375 116.6796875 C-47.7821738 118.68545369 -49.4603431 120.54901964 -51.2109375 122.8046875 C-51.67113281 123.37445313 -52.13132812 123.94421875 -52.60546875 124.53125 C-53.06308594 125.0984375 -53.52070313 125.665625 -53.9921875 126.25 C-54.44980469 126.81493164 -54.90742188 127.37986328 -55.37890625 127.96191406 C-56.73299653 129.65976983 -56.73299653 129.65976983 -57.88671875 131.48339844 C-59.0546875 133.171875 -59.0546875 133.171875 -61.7109375 135.6796875 C-67.66699246 135.82555007 -72.24793575 133.89653186 -77.4609375 131.1796875 C-78.15050537 130.82729004 -78.84007324 130.47489258 -79.55053711 130.11181641 C-86.15718765 126.62996401 -91.92409495 122.40382285 -97.7109375 117.6796875 C-98.34 117.21433594 -98.9690625 116.74898438 -99.6171875 116.26953125 C-107.52254917 110.17270751 -119.51207574 96.8626982 -121.171875 86.91796875 C-120.42430264 81.66595613 -116.93627988 78.42309814 -113.53320312 74.50976562 C-110.92338647 71.26685796 -109.26869983 68.85068966 -109.50390625 64.59375 C-110.63891634 58.52413917 -113.25807125 52.87465524 -115.74853516 47.25756836 C-116.58955501 45.3590212 -117.4112959 43.45298328 -118.23046875 41.54492188 C-121.19691112 34.14503801 -121.19691112 34.14503801 -125.7109375 27.6796875 C-128.47812334 27.26928698 -130.76525592 27.11967267 -133.5234375 27.1796875 C-134.57241211 27.15648437 -134.57241211 27.15648437 -135.64257812 27.1328125 C-144.32848991 27.19781465 -148.83507168 32.42020153 -153.87890625 38.94921875 Z " fill="#000000" transform="translate(344.7109375,154.3203125)"/>
</svg>
